<svg width="21" height="20" viewBox="0 0 21 20" fill="none" xmlns="http://www.w3.org/2000/svg">
<path d="M2.69249 8.94452C2.58389 9.60853 1.96495 10.0772 1.29988 9.99912C0.595236 9.88194 0.118402 9.257 0.227 8.59299C0.827905 3.71059 4.95959 -4.18127e-05 9.99865 -4.18127e-05C12.7721 -4.18127e-05 15.2867 1.13268 17.1069 2.9294L17.5416 3.31999L17.5148 1.24985C17.5057 0.546787 18.0455 -4.18127e-05 18.7487 -4.18127e-05C19.4518 -4.18127e-05 20.0057 0.546787 20.0148 1.24985L20.0795 6.24944C20.0886 6.9525 19.5488 7.49933 18.8457 7.49933H13.8457C13.1425 7.49933 12.5886 6.9525 12.5795 6.24944C12.5704 5.54637 13.1102 4.99954 13.8133 4.99954H15.6883L15.3723 4.72613L15.3718 4.68707C13.9874 3.35905 12.1013 2.49975 10.031 2.49975C6.24193 2.49975 3.15331 5.31201 2.69249 8.94452ZM20.0295 11.4443C19.4281 16.2877 15.2964 19.9983 10.2573 19.9983C7.52297 19.9983 5.00832 18.8656 3.14914 17.0688L2.75346 16.6783L2.77974 18.7093C2.78833 19.3733 2.24903 19.9592 1.54591 19.9592C0.881844 19.9592 0.288833 19.4124 0.279738 18.7093L0.176507 13.7488C0.172465 13.4363 0.285611 13.1239 0.516954 12.8895C0.747792 12.6161 1.09784 12.4989 1.41034 12.4989H6.41034C7.11346 12.4989 7.66741 13.0457 7.67651 13.7488C7.6856 14.4519 7.1458 14.9987 6.44268 14.9987H4.56768L4.88371 15.2721L4.88422 15.3112C6.26858 16.6392 8.1547 17.4985 10.225 17.4985C14.0141 17.4985 17.1027 14.6862 17.5635 11.0537C17.6721 10.3897 18.2911 9.921 18.9561 9.99912C19.6608 10.1163 20.1376 10.7412 20.0295 11.4443Z" fill="url(#paint0_linear_5511_4439)"/>
<defs>
<linearGradient id="paint0_linear_5511_4439" x1="9.99219" y1="-0.5" x2="50.3684" y2="39.7661" gradientUnits="userSpaceOnUse">
<stop/>
<stop offset="1" stop-color="white" stop-opacity="0"/>
</linearGradient>
</defs>
</svg>
