<svg width="20" height="17" viewBox="0 0 20 17" fill="none" xmlns="http://www.w3.org/2000/svg">
<path d="M0.0148597 1.03095C0.00763443 0.472408 0.474177 -0.000209063 1.03277 -0.000209063H18.2203C18.7789 -0.000209063 19.2576 0.472408 19.2649 1.03095C19.2721 1.5895 18.8055 2.06212 18.2469 2.06212H1.05945C0.500855 2.06212 0.022085 1.5895 0.0148597 1.03095ZM0.108232 8.2491C0.101007 7.69055 0.56755 7.21794 1.12614 7.21794H18.3136C18.8722 7.21794 19.351 7.69055 19.3582 8.2491C19.3655 8.80765 18.8989 9.28026 18.3403 9.28026H1.15282C0.594227 9.28026 0.115458 8.80765 0.108232 8.2491ZM19.4516 15.4672C19.4588 16.0258 18.9923 16.4984 18.4337 16.4984H1.24619C0.6876 16.4984 0.20883 16.0258 0.201605 15.4672C0.19438 14.9087 0.660922 14.4361 1.21952 14.4361H18.407C18.9656 14.4361 19.4444 14.9087 19.4516 15.4672Z" fill="white"/>
</svg>
