<svg width="16" height="16" viewBox="0 0 16 16" fill="none" xmlns="http://www.w3.org/2000/svg">
<path d="M3.5 1.75C3.5 0.78125 4.28125 0 5.25 0H6C6.5625 0 7 0.4375 7 1V15C7 15.5625 6.5625 16 6 16H5C4.0625 16 3.28125 15.375 3.0625 14.5C3.03125 14.5 3.03125 14.5 3 14.5C1.625 14.5 0.5 13.375 0.5 12C0.5 11.4375 0.6875 10.9062 1 10.5C0.40625 10.0312 0 9.3125 0 8.5C0 7.53125 0.5625 6.6875 1.34375 6.28125C1.125 5.90625 1 5.46875 1 5C1 3.625 2.125 2.5 3.5 2.5V1.75ZM12 1.75V2.5C13.375 2.5 14.5 3.625 14.5 5C14.5 5.46875 14.375 5.90625 14.1562 6.28125C14.9688 6.6875 15.5 7.53125 15.5 8.5C15.5 9.3125 15.0938 10.0312 14.5 10.5C14.8125 10.9062 15 11.4375 15 12C15 13.375 13.875 14.5 12.5 14.5C12.4688 14.5 12.4688 14.5 12.4375 14.5C12.2188 15.375 11.4375 16 10.5 16H9.5C8.9375 16 8.5 15.5625 8.5 15V1C8.5 0.4375 8.9375 0 9.5 0H10.25C11.2188 0 12 0.78125 12 1.75Z" fill="white"/>
</svg>
