<svg width="19" height="17" viewBox="0 0 19 17" fill="none" xmlns="http://www.w3.org/2000/svg">
<path d="M17.7188 1.8125L11.7188 7.8125L12.7812 8.875C12.9375 9.03125 13 9.1875 13 9.375C13 9.78125 12.6875 10.0938 12.2812 10.0938H11.375L8 6.71875V5.8125C8 5.40625 8.3125 5.09375 8.71875 5.09375C8.90625 5.09375 9.0625 5.15625 9.21875 5.3125L10.2812 6.375L16.2812 0.375C16.6875 0 17.3125 0 17.7188 0.375C18.0938 0.78125 18.0938 1.40625 17.7188 1.8125ZM10.6562 11.125C10.7812 12.4688 10.2812 13.8125 9.34375 14.75C8.46875 15.625 7.3125 16.0938 6.09375 16.0938H0.6875C0.3125 16.0938 0 15.7812 0 15.4062C0 15.2188 0.09375 15.0312 0.21875 14.875L4.1875 11.3438C4.3125 11.2188 4.15625 11 4 11.0938L2.40625 11.875C2.21875 11.9688 2 11.8438 2 11.625C2 10.6562 2.40625 9.71875 3.09375 9L3.34375 8.75C4.28125 7.8125 5.625 7.3125 6.96875 7.4375L10.6562 11.125Z" fill="white"/>
</svg>
