<svg width="13" height="12" viewBox="0 0 13 12" fill="none" xmlns="http://www.w3.org/2000/svg">
<path d="M6.15387 11.999C2.84918 11.999 0.119008 9.30387 0.0762633 5.99946C0.033518 2.69505 2.69397 -4.18127e-05 5.99865 -4.18127e-05C9.30334 -4.18127e-05 12.0335 2.69505 12.0763 5.99946C12.119 9.30387 9.45856 11.999 6.15387 11.999ZM8.03198 4.99173C8.21614 4.73394 8.11785 4.3824 7.85791 4.21836C7.59798 4.05431 7.24732 4.12461 7.0866 4.3824L5.66348 6.70252L5.01976 5.85884C4.82892 5.60105 4.47675 5.55418 4.2448 5.74167C3.98942 5.92915 3.94709 6.28068 4.13762 6.51504L5.28202 8.01491C5.40133 8.17896 5.5663 8.24927 5.7538 8.24927C5.9413 8.24927 6.10385 8.13209 6.19578 7.99148L8.03198 4.99173Z" fill="#92C300"/>
</svg>
