<svg width="21" height="18" viewBox="0 0 21 18" fill="none" xmlns="http://www.w3.org/2000/svg">
<path d="M0.0234509 1.8747C0.0103141 0.859157 0.858573 -0.000146344 1.8742 -0.000146344H5.6242C6.67889 -0.000146344 7.51031 0.859157 7.52345 1.8747L7.53154 2.49964H12.5315L12.5235 1.8747C12.5103 0.859157 13.3586 -0.000146344 14.3742 -0.000146344H18.1242C19.1789 -0.000146344 20.0103 0.859157 20.0235 1.8747L20.072 5.62438C20.0856 6.67898 19.2759 7.49923 18.2212 7.49923H14.4712C13.4556 7.49923 12.5856 6.67898 12.572 5.62438L12.5639 4.99944H7.56387L7.57196 5.62438C7.57549 5.8978 7.5009 6.17121 7.38725 6.44463L10.1285 9.99902H13.2535C14.3082 9.99902 15.1397 10.8583 15.1528 11.8739L15.2013 15.6235C15.2149 16.6781 14.4052 17.4984 13.3506 17.4984H9.60056C8.58493 17.4984 7.71495 16.6781 7.7013 15.6235L7.6528 11.8739C7.64926 11.6004 7.72385 11.327 7.83801 11.0927L5.09621 7.49923H1.97121C0.955584 7.49923 0.0855982 6.67898 0.0719561 5.62438L0.0234509 1.8747Z" fill="url(#paint0_linear_5511_4445)"/>
<defs>
<linearGradient id="paint0_linear_5511_4445" x1="9.97656" y1="-1.75" x2="50.3528" y2="38.5161" gradientUnits="userSpaceOnUse">
<stop/>
<stop offset="1" stop-color="white" stop-opacity="0"/>
</linearGradient>
</defs>
</svg>
