<svg width="18" height="18" viewBox="0 0 18 18" fill="none" xmlns="http://www.w3.org/2000/svg">
<path d="M18 9C18 13.6055 14.5547 17.4023 10.0898 17.9297V11.7422H12.5156L13.043 9H10.0898V8.01562C10.0898 6.57422 10.6523 6.01172 12.1289 6.01172C12.5859 6.01172 12.9727 6.01172 13.1836 6.04688V3.55078C12.7617 3.44531 11.7773 3.33984 11.2148 3.33984C8.22656 3.33984 6.82031 4.74609 6.82031 7.80469V9H4.95703V11.7422H6.82031V17.7539C2.91797 16.7695 0 13.2188 0 9C0 4.04297 4.04297 0 9 0C13.957 0 18 4.04297 18 9Z" fill="black"/>
</svg>
