<svg width="1440" height="438" viewBox="0 0 1440 438" fill="none" xmlns="http://www.w3.org/2000/svg">
<path d="M40 132.286H100.606V174.934L101.728 176.057C111.455 159.97 124.175 147.437 139.887 138.459C155.6 129.106 172.996 124.429 192.076 124.429C223.875 124.429 248.94 132.66 267.272 149.121C285.603 165.581 294.769 190.273 294.769 223.194V422.408H230.796V240.029C230.048 217.209 225.184 200.748 216.206 190.647C207.227 180.172 193.198 174.934 174.118 174.934C163.269 174.934 153.542 176.992 144.938 181.107C136.333 184.848 129.038 190.273 123.052 197.381C117.067 204.115 112.39 212.158 109.023 221.511C105.656 230.864 103.973 240.778 103.973 251.253V422.408H40V132.286Z" fill="white"/>
<path d="M472.781 430.264C449.586 430.264 428.823 426.523 410.491 419.041C392.534 411.184 377.196 400.522 364.476 387.054C352.13 373.586 342.59 357.5 335.856 338.794C329.497 320.089 326.317 299.513 326.317 277.066C326.317 254.994 329.497 234.605 335.856 215.899C342.59 197.194 352.13 181.107 364.476 167.639C377.196 154.171 392.534 143.696 410.491 136.214C428.823 128.358 449.586 124.429 472.781 124.429C495.975 124.429 516.551 128.358 534.509 136.214C552.84 143.696 568.179 154.171 580.524 167.639C593.244 181.107 602.784 197.194 609.144 215.899C615.878 234.605 619.245 254.994 619.245 277.066C619.245 299.513 615.878 320.089 609.144 338.794C602.784 357.5 593.244 373.586 580.524 387.054C568.179 400.522 552.84 411.184 534.509 419.041C516.551 426.523 495.975 430.264 472.781 430.264ZM472.781 379.759C486.997 379.759 499.342 376.766 509.817 370.781C520.293 364.795 528.897 356.939 535.631 347.212C542.365 337.485 547.228 326.636 550.221 314.664C553.588 302.319 555.272 289.786 555.272 277.066C555.272 264.721 553.588 252.375 550.221 240.029C547.228 227.684 542.365 216.835 535.631 207.482C528.897 197.755 520.293 189.899 509.817 183.913C499.342 177.927 486.997 174.934 472.781 174.934C458.564 174.934 446.219 177.927 435.744 183.913C425.269 189.899 416.664 197.755 409.93 207.482C403.196 216.835 398.146 227.684 394.779 240.029C391.786 252.375 390.289 264.721 390.289 277.066C390.289 289.786 391.786 302.319 394.779 314.664C398.146 326.636 403.196 337.485 409.93 347.212C416.664 356.939 425.269 364.795 435.744 370.781C446.219 376.766 458.564 379.759 472.781 379.759Z" fill="white"/>
<path d="M649.981 132.286H710.026V188.402H711.148C713.019 180.546 716.573 172.877 721.81 165.394C727.422 157.912 733.969 151.178 741.451 145.193C749.307 138.833 757.912 133.782 767.265 130.041C776.617 126.3 786.157 124.429 795.884 124.429C803.366 124.429 808.417 124.616 811.036 124.991C814.029 125.365 817.021 125.739 820.014 126.113V187.841C815.525 187.093 810.849 186.532 805.985 186.158C801.496 185.409 797.007 185.035 792.517 185.035C781.668 185.035 771.38 187.28 761.653 191.769C752.3 195.884 744.07 202.244 736.962 210.849C729.854 219.079 724.242 229.367 720.127 241.713C716.012 254.058 713.954 268.275 713.954 284.361V422.408H649.981V132.286Z" fill="white"/>
<path d="M1088.24 422.408H1027.64V383.126H1026.51C1017.91 399.961 1005.38 412.12 988.916 419.602C972.455 426.71 955.059 430.264 936.728 430.264C913.907 430.264 893.892 426.336 876.683 418.48C859.848 410.249 845.819 399.213 834.596 385.371C823.372 371.529 814.955 355.255 809.343 336.55C803.732 317.47 800.926 297.081 800.926 275.383C800.926 249.195 804.48 226.561 811.588 207.482C818.696 188.402 828.049 172.69 839.646 160.344C851.618 147.998 865.086 139.02 880.05 133.408C895.389 127.422 910.914 124.429 926.627 124.429C935.605 124.429 944.771 125.365 954.124 127.235C963.477 128.732 972.455 131.35 981.06 135.092C989.664 138.833 997.521 143.696 1004.63 149.682C1012.11 155.293 1018.28 162.027 1023.15 169.884H1024.27V21.7363H1088.24V422.408ZM864.899 280.433C864.899 292.779 866.395 304.937 869.388 316.909C872.755 328.88 877.618 339.543 883.978 348.895C890.712 358.248 899.13 365.73 909.231 371.342C919.332 376.953 931.303 379.759 945.145 379.759C959.361 379.759 971.52 376.766 981.621 370.781C992.096 364.795 1000.51 356.939 1006.87 347.212C1013.61 337.485 1018.47 326.636 1021.46 314.664C1024.83 302.319 1026.51 289.786 1026.51 277.066C1026.51 244.893 1019.22 219.827 1004.63 201.87C990.412 183.913 970.959 174.934 946.267 174.934C931.303 174.934 918.583 178.114 908.108 184.474C898.007 190.46 889.59 198.503 882.856 208.604C876.496 218.331 871.82 229.554 868.827 242.274C866.208 254.62 864.899 267.339 864.899 280.433Z" fill="white"/>
<path d="M1334.78 251.814C1334.03 241.713 1331.78 231.986 1328.04 222.633C1324.68 213.28 1319.81 205.237 1313.45 198.503C1307.47 191.395 1299.99 185.783 1291.01 181.668C1282.4 177.179 1272.68 174.934 1261.83 174.934C1250.6 174.934 1240.31 176.992 1230.96 181.107C1221.98 184.848 1214.13 190.273 1207.39 197.381C1201.03 204.115 1195.8 212.158 1191.68 221.511C1187.94 230.864 1185.88 240.965 1185.51 251.814H1334.78ZM1185.51 293.901C1185.51 305.124 1187 315.974 1190 326.449C1193.36 336.924 1198.23 346.089 1204.59 353.946C1210.95 361.802 1218.99 368.162 1228.72 373.025C1238.44 377.515 1250.04 379.759 1263.51 379.759C1282.22 379.759 1297.18 375.831 1308.4 367.975C1320 359.744 1328.6 347.586 1334.22 331.499H1394.82C1391.46 347.212 1385.66 361.241 1377.43 373.586C1369.2 385.932 1359.28 396.407 1347.68 405.012C1336.09 413.242 1322.99 419.415 1308.4 423.53C1294.19 428.019 1279.22 430.264 1263.51 430.264C1240.69 430.264 1220.49 426.523 1202.9 419.041C1185.32 411.559 1170.36 401.084 1158.01 387.616C1146.04 374.148 1136.87 358.061 1130.51 339.355C1124.53 320.65 1121.53 300.074 1121.53 277.627C1121.53 257.051 1124.71 237.598 1131.07 219.266C1137.81 200.561 1147.16 184.287 1159.13 170.445C1171.48 156.229 1186.26 145.005 1203.46 136.775C1220.67 128.545 1240.13 124.429 1261.83 124.429C1284.65 124.429 1305.04 129.293 1322.99 139.02C1341.32 148.372 1356.48 160.905 1368.45 176.618C1380.42 192.33 1389.02 210.475 1394.26 231.051C1399.87 251.253 1401.37 272.203 1398.75 293.901H1185.51Z" fill="white"/>
<rect width="1440" height="438" fill="url(#paint0_linear_5511_4809)"/>
<defs>
<linearGradient id="paint0_linear_5511_4809" x1="720" y1="0" x2="720" y2="438" gradientUnits="userSpaceOnUse">
<stop stop-color="#030307" stop-opacity="0"/>
<stop offset="1" stop-color="#030307"/>
</linearGradient>
</defs>
</svg>
