<svg width="13" height="13" viewBox="0 0 13 13" fill="none" xmlns="http://www.w3.org/2000/svg">
<path opacity="0.5" d="M1.75 1.3125C1.50391 1.3125 1.3125 1.50391 1.3125 1.75V10.5C1.3125 10.7461 1.50391 10.9375 1.75 10.9375H10.5C10.7461 10.9375 10.9375 10.7461 10.9375 10.5V1.75C10.9375 1.50391 10.7461 1.3125 10.5 1.3125H1.75ZM0 1.75C0 0.792969 0.792969 0 1.75 0H10.5C11.457 0 12.25 0.792969 12.25 1.75V10.5C12.25 11.457 11.457 12.25 10.5 12.25H1.75C0.792969 12.25 0 11.457 0 10.5V1.75ZM3.5 2.625C3.99219 2.625 4.375 3.00781 4.375 3.5C4.375 3.99219 3.99219 4.375 3.5 4.375C3.00781 4.375 2.625 3.99219 2.625 3.5C2.625 3.00781 3.00781 2.625 3.5 2.625ZM7.21875 4.59375C7.46484 4.59375 7.65625 4.73047 7.79297 4.92188L9.98047 8.64062C10.0898 8.83203 10.0898 9.07812 9.98047 9.29688C9.87109 9.48828 9.65234 9.625 9.40625 9.625H2.84375C2.59766 9.625 2.37891 9.48828 2.26953 9.26953C2.16016 9.05078 2.16016 8.80469 2.29688 8.58594L3.82812 6.39844C3.96484 6.23438 4.15625 6.125 4.375 6.125C4.59375 6.125 4.78516 6.23438 4.92188 6.39844L5.38672 7.08203L6.64453 4.92188C6.78125 4.73047 7 4.59375 7.21875 4.59375Z" fill="black"/>
</svg>
