<svg width="16" height="16" viewBox="0 0 16 16" fill="none" xmlns="http://www.w3.org/2000/svg">
<path d="M7.875 3.86719C10.125 3.86719 11.918 5.69531 11.918 7.91016C11.918 10.1602 10.0898 11.9531 7.875 11.9531C5.625 11.9531 3.83203 10.125 3.83203 7.91016C3.83203 5.66016 5.66016 3.86719 7.875 3.86719ZM7.875 5.27344C6.39844 5.30859 5.23828 6.46875 5.23828 7.91016C5.27344 9.38672 6.43359 10.5469 7.875 10.5469C9.35156 10.5117 10.5117 9.35156 10.5117 7.91016C10.4766 6.43359 9.31641 5.27344 7.875 5.27344ZM11.1445 3.69141C11.1445 4.21875 11.5664 4.64062 12.0938 4.64062C12.6211 4.64062 13.043 4.21875 13.043 3.69141C13.043 3.16406 12.6211 2.77734 12.0938 2.77734C11.5664 2.77734 11.1445 3.16406 11.1445 3.69141ZM15.7148 4.67578C15.7852 5.97656 15.7852 9.84375 15.7148 11.1445C15.6445 12.4102 15.3633 13.5352 14.4492 14.4492C13.5 15.3984 12.4102 15.6797 11.1445 15.7148C9.84375 15.8203 5.94141 15.8203 4.64062 15.7148C3.375 15.6797 2.25 15.3633 1.33594 14.4492C0.421875 13.5352 0.105469 12.4102 0.0703125 11.1445C0 9.84375 0 5.94141 0.0703125 4.64062C0.140625 3.41016 0.421875 2.28516 1.33594 1.37109C2.25 0.421875 3.375 0.140625 4.64062 0.0703125C5.94141 0 9.84375 0 11.1445 0.0703125C12.4102 0.140625 13.5 0.421875 14.4492 1.37109C15.3633 2.28516 15.6445 3.41016 15.7148 4.67578ZM14.0273 12.5508C14.4492 11.5312 14.3438 9.07031 14.3438 7.91016C14.3438 6.75 14.4492 4.28906 14.0273 3.26953C13.7461 2.56641 13.2188 2.03906 12.5156 1.75781C11.4961 1.37109 9.03516 1.44141 7.875 1.44141C6.75 1.44141 4.28906 1.37109 3.23438 1.75781C2.56641 2.03906 2.00391 2.56641 1.75781 3.26953C1.33594 4.28906 1.44141 6.75 1.44141 7.91016C1.44141 9.07031 1.33594 11.5312 1.75781 12.5508C2.03906 13.2539 2.56641 13.7812 3.23438 14.0625C4.28906 14.4492 6.75 14.3789 7.875 14.3789C9.03516 14.3789 11.4961 14.4492 12.5156 14.0625C13.2188 13.7812 13.7461 13.2539 14.0273 12.5508Z" fill="black"/>
</svg>
