<svg width="16" height="17" viewBox="0 0 16 17" fill="none" xmlns="http://www.w3.org/2000/svg">
<path d="M7.28125 0.21875C7.71875 0 8.28125 0 8.75 0.21875L15.5625 3.375C15.8438 3.5 16 3.78125 16 4.0625C16 4.34375 15.8438 4.625 15.5625 4.75L8.75 7.90625C8.28125 8.125 7.71875 8.125 7.28125 7.90625L0.4375 4.75C0.15625 4.625 0 4.34375 0 4.0625C0 3.78125 0.15625 3.5 0.4375 3.375L7.28125 0.21875ZM1.5 6.875L6.625 9.25C7.5 9.65625 8.5 9.65625 9.375 9.25L14.5 6.875L15.5625 7.375C15.8438 7.5 16 7.78125 16 8.0625C16 8.34375 15.8438 8.625 15.5625 8.75L8.75 11.9062C8.28125 12.125 7.71875 12.125 7.28125 11.9062L0.4375 8.75C0.15625 8.625 0 8.34375 0 8.0625C0 7.78125 0.15625 7.5 0.4375 7.375L1.5 6.875ZM0.4375 11.375L1.5 10.875L6.625 13.25C7.5 13.6562 8.5 13.6562 9.375 13.25L14.5 10.875L15.5625 11.375C15.8438 11.5 16 11.7812 16 12.0625C16 12.3438 15.8438 12.625 15.5625 12.75L8.71875 15.9062C8.28125 16.125 7.71875 16.125 7.25 15.9062L0.4375 12.75C0.15625 12.625 0 12.3438 0 12.0625C0 11.7812 0.15625 11.5 0.4375 11.375Z" fill="white"/>
</svg>
