<svg width="84" height="26" viewBox="0 0 84 26" fill="none" xmlns="http://www.w3.org/2000/svg">
<g clip-path="url(#clip0_5041_40642)">
<path fill-rule="evenodd" clip-rule="evenodd" d="M8.57162 0.32251C7.16137 0.32251 5.80894 0.88272 4.81176 1.8799L0 6.69162V8.89412C0 10.4502 0.6684 11.8501 1.73376 12.8225C0.6684 13.7949 0 15.1948 0 16.7509V18.9534L4.81176 23.7651C5.80894 24.7623 7.16137 25.3225 8.57162 25.3225C10.1277 25.3225 11.5276 24.6541 12.5 23.5887C13.4724 24.6541 14.8723 25.3225 16.4284 25.3225C17.8386 25.3225 19.1911 24.7623 20.1883 23.7651L25 18.9534V16.7509C25 15.1948 24.3316 13.7949 23.2663 12.8225C24.3316 11.8501 25 10.4502 25 8.89412V6.69162L20.1883 1.8799C19.1911 0.88272 17.8386 0.32251 16.4284 0.32251C14.8723 0.32251 13.4724 0.990908 12.5 2.05626C11.5276 0.990908 10.1277 0.32251 8.57162 0.32251ZM16.0993 12.8225C16.0393 12.7678 15.9805 12.7116 15.9229 12.654L12.5 9.23112L9.07713 12.654C9.0195 12.7116 8.96069 12.7678 8.90075 12.8225C8.96069 12.8772 9.0195 12.9334 9.07713 12.991L12.5 16.4139L15.9229 12.991C15.9805 12.9334 16.0393 12.8772 16.0993 12.8225ZM13.8889 18.9534V20.0052C13.8889 21.4077 15.0259 22.5447 16.4284 22.5447C17.1019 22.5447 17.7478 22.2772 18.2241 21.8009L22.2222 17.8027V16.7509C22.2222 15.3484 21.0852 14.2114 19.6827 14.2114C19.0092 14.2114 18.3633 14.4789 17.8871 14.9552L13.8889 18.9534ZM11.1111 18.9534L7.11294 14.9552C6.63669 14.4789 5.99078 14.2114 5.31726 14.2114C3.91474 14.2114 2.77777 15.3484 2.77777 16.7509V17.8027L6.77594 21.8009C7.25219 22.2772 7.89812 22.5447 8.57162 22.5447C9.97412 22.5447 11.1111 21.4077 11.1111 20.0052V18.9534ZM11.1111 5.63977V6.69162L7.11294 10.6898C6.63669 11.1661 5.99078 11.4336 5.31726 11.4336C3.91474 11.4336 2.77777 10.2966 2.77777 8.89412V7.84225L6.77594 3.84408C7.25219 3.36784 7.89812 3.10029 8.57162 3.10029C9.97412 3.10029 11.1111 4.23725 11.1111 5.63977ZM17.8871 10.6898L13.8889 6.69162V5.63977C13.8889 4.23725 15.0259 3.10029 16.4284 3.10029C17.1019 3.10029 17.7478 3.36784 18.2241 3.84408L22.2222 7.84225V8.89412C22.2222 10.2966 21.0852 11.4336 19.6827 11.4336C19.0092 11.4336 18.3633 11.1661 17.8871 10.6898Z" fill="#C2ED3F"/>
</g>
<path d="M35 9.47247H37.16V10.9925L37.2 11.0325C37.5467 10.4591 38 10.0125 38.56 9.69247C39.12 9.35914 39.74 9.19247 40.42 9.19247C41.5533 9.19247 42.4467 9.4858 43.1 10.0725C43.7533 10.6591 44.08 11.5391 44.08 12.7125V19.8125H41.8V13.3125C41.7733 12.4991 41.6 11.9125 41.28 11.5525C40.96 11.1791 40.46 10.9925 39.78 10.9925C39.3933 10.9925 39.0467 11.0658 38.74 11.2125C38.4333 11.3458 38.1733 11.5391 37.96 11.7925C37.7467 12.0325 37.58 12.3191 37.46 12.6525C37.34 12.9858 37.28 13.3391 37.28 13.7125V19.8125H35V9.47247Z" fill="white"/>
<path d="M50.4244 20.0925C49.5977 20.0925 48.8577 19.9591 48.2044 19.6925C47.5644 19.4125 47.0177 19.0325 46.5644 18.5525C46.1244 18.0725 45.7844 17.4991 45.5444 16.8325C45.3177 16.1658 45.2044 15.4325 45.2044 14.6325C45.2044 13.8458 45.3177 13.1191 45.5444 12.4525C45.7844 11.7858 46.1244 11.2125 46.5644 10.7325C47.0177 10.2525 47.5644 9.87914 48.2044 9.61247C48.8577 9.33247 49.5977 9.19247 50.4244 9.19247C51.251 9.19247 51.9844 9.33247 52.6244 9.61247C53.2777 9.87914 53.8244 10.2525 54.2644 10.7325C54.7177 11.2125 55.0577 11.7858 55.2844 12.4525C55.5244 13.1191 55.6444 13.8458 55.6444 14.6325C55.6444 15.4325 55.5244 16.1658 55.2844 16.8325C55.0577 17.4991 54.7177 18.0725 54.2644 18.5525C53.8244 19.0325 53.2777 19.4125 52.6244 19.6925C51.9844 19.9591 51.251 20.0925 50.4244 20.0925ZM50.4244 18.2925C50.931 18.2925 51.371 18.1858 51.7444 17.9725C52.1177 17.7591 52.4244 17.4791 52.6644 17.1325C52.9044 16.7858 53.0777 16.3991 53.1844 15.9725C53.3044 15.5325 53.3644 15.0858 53.3644 14.6325C53.3644 14.1925 53.3044 13.7525 53.1844 13.3125C53.0777 12.8725 52.9044 12.4858 52.6644 12.1525C52.4244 11.8058 52.1177 11.5258 51.7444 11.3125C51.371 11.0991 50.931 10.9925 50.4244 10.9925C49.9177 10.9925 49.4777 11.0991 49.1044 11.3125C48.731 11.5258 48.4244 11.8058 48.1844 12.1525C47.9444 12.4858 47.7644 12.8725 47.6444 13.3125C47.5377 13.7525 47.4844 14.1925 47.4844 14.6325C47.4844 15.0858 47.5377 15.5325 47.6444 15.9725C47.7644 16.3991 47.9444 16.7858 48.1844 17.1325C48.4244 17.4791 48.731 17.7591 49.1044 17.9725C49.4777 18.1858 49.9177 18.2925 50.4244 18.2925Z" fill="white"/>
<path d="M56.7398 9.47247H58.8798V11.4725H58.9198C58.9865 11.1925 59.1132 10.9191 59.2998 10.6525C59.4998 10.3858 59.7332 10.1458 59.9998 9.93247C60.2798 9.7058 60.5865 9.5258 60.9198 9.39247C61.2532 9.25914 61.5932 9.19247 61.9398 9.19247C62.2065 9.19247 62.3865 9.19914 62.4798 9.21247C62.5865 9.2258 62.6932 9.23914 62.7998 9.25247V11.4525C62.6398 11.4258 62.4732 11.4058 62.2998 11.3925C62.1398 11.3658 61.9798 11.3525 61.8198 11.3525C61.4332 11.3525 61.0665 11.4325 60.7198 11.5925C60.3865 11.7391 60.0932 11.9658 59.8398 12.2725C59.5865 12.5658 59.3865 12.9325 59.2398 13.3725C59.0932 13.8125 59.0198 14.3191 59.0198 14.8925V19.8125H56.7398V9.47247Z" fill="white"/>
<path d="M72.3595 19.8125H70.1995V18.4125H70.1595C69.8529 19.0125 69.4062 19.4458 68.8195 19.7125C68.2329 19.9658 67.6129 20.0925 66.9595 20.0925C66.1462 20.0925 65.4329 19.9525 64.8195 19.6725C64.2195 19.3791 63.7195 18.9858 63.3195 18.4925C62.9195 17.9991 62.6195 17.4191 62.4195 16.7525C62.2195 16.0725 62.1195 15.3458 62.1195 14.5725C62.1195 13.6391 62.2462 12.8325 62.4995 12.1525C62.7529 11.4725 63.0862 10.9125 63.4995 10.4725C63.9262 10.0325 64.4062 9.71247 64.9395 9.51247C65.4862 9.29914 66.0395 9.19247 66.5995 9.19247C66.9195 9.19247 67.2462 9.2258 67.5795 9.29247C67.9129 9.3458 68.2329 9.43914 68.5395 9.57247C68.8462 9.7058 69.1262 9.87914 69.3795 10.0925C69.6462 10.2925 69.8662 10.5325 70.0395 10.8125H70.0795V5.53247H72.3595V19.8125ZM64.3995 14.7525C64.3995 15.1925 64.4529 15.6258 64.5595 16.0525C64.6795 16.4791 64.8529 16.8591 65.0795 17.1925C65.3195 17.5258 65.6195 17.7925 65.9795 17.9925C66.3395 18.1925 66.7662 18.2925 67.2595 18.2925C67.7662 18.2925 68.1995 18.1858 68.5595 17.9725C68.9329 17.7591 69.2329 17.4791 69.4595 17.1325C69.6995 16.7858 69.8729 16.3991 69.9795 15.9725C70.0995 15.5325 70.1595 15.0858 70.1595 14.6325C70.1595 13.4858 69.8995 12.5925 69.3795 11.9525C68.8729 11.3125 68.1795 10.9925 67.2995 10.9925C66.7662 10.9925 66.3129 11.1058 65.9395 11.3325C65.5795 11.5458 65.2795 11.8325 65.0395 12.1925C64.8129 12.5391 64.6462 12.9391 64.5395 13.3925C64.4462 13.8325 64.3995 14.2858 64.3995 14.7525Z" fill="white"/>
<path d="M81.1461 13.7325C81.1194 13.3725 81.0394 13.0258 80.9061 12.6925C80.7861 12.3591 80.6128 12.0725 80.3861 11.8325C80.1728 11.5791 79.9061 11.3791 79.5861 11.2325C79.2794 11.0725 78.9328 10.9925 78.5461 10.9925C78.1461 10.9925 77.7794 11.0658 77.4461 11.2125C77.1261 11.3458 76.8461 11.5391 76.6061 11.7925C76.3794 12.0325 76.1928 12.3191 76.0461 12.6525C75.9128 12.9858 75.8394 13.3458 75.8261 13.7325H81.1461ZM75.8261 15.2325C75.8261 15.6325 75.8794 16.0191 75.9861 16.3925C76.1061 16.7658 76.2794 17.0925 76.5061 17.3725C76.7328 17.6525 77.0194 17.8791 77.3661 18.0525C77.7128 18.2125 78.1261 18.2925 78.6061 18.2925C79.2728 18.2925 79.8061 18.1525 80.2061 17.8725C80.6194 17.5791 80.9261 17.1458 81.1261 16.5725H83.2861C83.1661 17.1325 82.9594 17.6325 82.6661 18.0725C82.3728 18.5125 82.0194 18.8858 81.6061 19.1925C81.1928 19.4858 80.7261 19.7058 80.2061 19.8525C79.6994 20.0125 79.1661 20.0925 78.6061 20.0925C77.7928 20.0925 77.0728 19.9591 76.4461 19.6925C75.8194 19.4258 75.2861 19.0525 74.8461 18.5725C74.4194 18.0925 74.0928 17.5191 73.8661 16.8525C73.6528 16.1858 73.5461 15.4525 73.5461 14.6525C73.5461 13.9191 73.6594 13.2258 73.8861 12.5725C74.1261 11.9058 74.4594 11.3258 74.8861 10.8325C75.3261 10.3258 75.8528 9.9258 76.4661 9.63247C77.0794 9.33914 77.7728 9.19247 78.5461 9.19247C79.3594 9.19247 80.0861 9.3658 80.7261 9.71247C81.3794 10.0458 81.9194 10.4925 82.3461 11.0525C82.7728 11.6125 83.0794 12.2591 83.2661 12.9925C83.4661 13.7125 83.5194 14.4591 83.4261 15.2325H75.8261Z" fill="white"/>
<defs>
<clipPath id="clip0_5041_40642">
<rect width="25" height="25.625" fill="white"/>
</clipPath>
</defs>
</svg>
