<svg width="13" height="17" viewBox="0 0 13 17" fill="none" xmlns="http://www.w3.org/2000/svg">
<path d="M6.24953 -0.000115668C7.97479 -0.000115668 9.39264 1.39951 9.41495 3.12462L9.46885 7.29094C9.49116 9.01606 8.10953 10.4157 6.38427 10.4157C4.65901 10.4157 3.24116 9.01606 3.21885 7.29094L3.16495 3.12462C3.14264 1.39951 4.52427 -0.000115668 6.24953 -0.000115668ZM1.6395 5.98897L1.65635 7.29094C1.69003 9.89489 3.83286 11.978 6.40448 11.978C9.00864 11.978 11.065 9.89489 11.0313 7.29094L11.0145 5.98897C11.009 5.56582 11.3625 5.20778 11.7856 5.20778C12.2088 5.20778 12.5715 5.56582 12.577 5.98897L12.5938 7.29094C12.6351 10.4808 10.2929 13.1173 7.20552 13.5079L7.22615 15.1028H8.78865C9.21183 15.1028 9.57453 15.4608 9.58 15.884C9.58548 16.3071 9.23204 16.6652 8.80886 16.6652H4.12136C3.69818 16.6652 3.33548 16.3071 3.33 15.884C3.32453 15.4608 3.67797 15.1028 4.10115 15.1028H5.66365L5.64302 13.5079C2.54552 13.1173 0.135109 10.4808 0.0938458 7.29094L0.0770038 5.98897C0.0715301 5.56582 0.424971 5.20778 0.848148 5.20778C1.27133 5.20778 1.63403 5.56582 1.6395 5.98897Z" fill="url(#paint0_linear_5041_40675)"/>
<defs>
<linearGradient id="paint0_linear_5041_40675" x1="6.24414" y1="-0.416748" x2="40.5641" y2="33.1298" gradientUnits="userSpaceOnUse">
<stop/>
<stop offset="1" stop-color="white" stop-opacity="0"/>
</linearGradient>
</defs>
</svg>
