<svg width="14" height="16" viewBox="0 0 14 16" fill="none" xmlns="http://www.w3.org/2000/svg">
<path opacity="0.5" d="M6.91797 1.44922C8.39453 0 10.7461 0 12.1953 1.44922C13.6445 2.92578 13.6445 5.27734 12.1953 6.72656L7.54688 11.375C6.61719 12.3047 5.08594 12.3047 4.15625 11.375C3.19922 10.418 3.19922 8.88672 4.15625 7.95703L8.47656 3.63672C8.72266 3.36328 9.16016 3.36328 9.40625 3.63672C9.65234 3.88281 9.65234 4.29297 9.40625 4.56641L5.08594 8.88672C4.64844 9.32422 4.64844 10.0078 5.08594 10.4453C5.49609 10.8555 6.17969 10.8555 6.61719 10.4453L11.2656 5.79688C12.1953 4.83984 12.1953 3.33594 11.2656 2.37891C10.3086 1.44922 8.80469 1.44922 7.84766 2.37891L2.89844 7.32812C1.44922 8.77734 1.44922 11.1562 2.89844 12.6055C4.375 14.0547 6.72656 14.0547 8.17578 12.6055L12.0312 8.72266C12.3047 8.47656 12.7148 8.47656 12.9609 8.72266C13.207 8.99609 13.207 9.40625 12.9609 9.65234L9.10547 13.5352C7.13672 15.5039 3.9375 15.5039 1.96875 13.5352C0.0273438 11.5664 0 8.36719 1.96875 6.39844L6.91797 1.44922Z" fill="black"/>
</svg>
