<svg width="40" height="33" viewBox="0 0 40 33" fill="none" xmlns="http://www.w3.org/2000/svg">
<path fill-rule="evenodd" clip-rule="evenodd" d="M17.5391 30.6975C17.5391 31.5047 16.8847 32.1591 16.0775 32.1591H1.46156C0.654363 32.1591 0 31.5047 0 30.6975V14.551C0 14.1777 0.142866 13.8185 0.399289 13.5471L12.7662 0.46064C13.6743 -0.500287 15.29 0.142381 15.29 1.4645V5.63075C15.29 5.89595 15.2179 6.15615 15.0813 6.38347L11.8538 11.7554C11.2685 12.7295 11.9702 13.9696 13.1066 13.9696H16.0775C16.8847 13.9696 17.5391 14.624 17.5391 15.4312V30.6975Z" fill="#C2ED3F"/>
<path fill-rule="evenodd" clip-rule="evenodd" d="M39.0781 30.6977C39.0781 31.5049 38.4238 32.1593 37.6166 32.1593H23.0006C22.1934 32.1593 21.5391 31.5049 21.5391 30.6977V14.5512C21.5391 14.1778 21.6819 13.8186 21.9384 13.5473L34.3063 0.460607C35.2144 -0.500275 36.8301 0.142403 36.8301 1.4645V5.63085C36.8301 5.89609 36.7579 6.15633 36.6213 6.38368L33.3932 11.7554C32.8078 12.7296 33.5095 13.9698 34.646 13.9698H37.6166C38.4238 13.9698 39.0781 14.6242 39.0781 15.4314V30.6977Z" fill="#C2ED3F"/>
</svg>
