<svg width="21" height="20" viewBox="0 0 21 20" fill="none" xmlns="http://www.w3.org/2000/svg">
<path d="M20.0168 1.24985C20.0713 5.46825 17.109 8.98358 13.1743 9.80383C12.8325 7.53839 11.7906 5.50731 10.247 3.94494C11.7786 1.56233 14.4537 -4.18127e-05 17.5006 -4.18127e-05H18.7506C19.4537 -4.18127e-05 20.0077 0.546787 20.0168 1.24985ZM0.0491132 3.74964C0.0400185 3.04658 0.57982 2.49975 1.28294 2.49975H2.53294C7.37669 2.49975 11.3335 6.40567 11.3961 11.249L11.4931 18.7484C11.5022 19.4515 10.9624 19.9983 10.2593 19.9983C9.55618 19.9983 9.00223 19.4515 8.99313 18.7484L8.91229 12.4989C4.06854 12.4989 0.111766 8.59299 0.0491132 3.74964Z" fill="url(#paint0_linear_5041_40767)"/>
<defs>
<linearGradient id="paint0_linear_5041_40767" x1="9.99414" y1="-0.5" x2="50.3704" y2="39.7661" gradientUnits="userSpaceOnUse">
<stop/>
<stop offset="1" stop-color="white" stop-opacity="0"/>
</linearGradient>
</defs>
</svg>
