<svg width="19" height="20" viewBox="0 0 19 20" fill="none" xmlns="http://www.w3.org/2000/svg">
<path d="M9.37365 -4.18127e-05C9.56897 -4.18127e-05 9.72572 0.0390174 9.88298 0.117136L17.3062 3.24187C18.1701 3.59341 18.8063 4.45271 18.8194 5.46825C18.8694 9.33511 17.3598 16.4439 10.6825 19.6468C10.0225 19.9592 9.24122 19.9592 8.61218 19.6468C1.81293 16.4439 0.158475 9.33511 0.0693917 5.46825C0.0562548 4.45271 0.670139 3.59341 1.52497 3.24187L8.86736 0.117136C9.0226 0.0390174 9.17834 -4.18127e-05 9.37365 -4.18127e-05ZM9.40751 2.61693L9.5985 17.3813C14.9553 14.7643 16.3258 8.98358 16.3204 5.54637L9.40751 2.61693Z" fill="url(#paint0_linear_5511_4453)"/>
<defs>
<linearGradient id="paint0_linear_5511_4453" x1="9.36719" y1="-0.5" x2="49.7434" y2="39.7661" gradientUnits="userSpaceOnUse">
<stop/>
<stop offset="1" stop-color="white" stop-opacity="0"/>
</linearGradient>
</defs>
</svg>
