<svg width="15" height="15" viewBox="0 0 15 15" fill="none" xmlns="http://www.w3.org/2000/svg">
<path d="M9.10547 4.15625L8.72266 2.84375L7.41016 2.46094C7.27344 2.43359 7.19141 2.32422 7.19141 2.1875C7.19141 2.05078 7.27344 1.94141 7.41016 1.91406L8.72266 1.53125L9.10547 0.21875C9.13281 0.0820312 9.24219 0 9.37891 0C9.51562 0 9.625 0.0820312 9.65234 0.21875L10.0352 1.53125L11.3477 1.91406C11.4844 1.94141 11.5664 2.05078 11.5664 2.1875C11.5664 2.32422 11.4844 2.43359 11.3477 2.46094L10.0352 2.84375L9.65234 4.15625C9.625 4.29297 9.51562 4.375 9.37891 4.375C9.24219 4.375 9.13281 4.29297 9.10547 4.15625ZM6.01562 4.29297L7.30078 6.86328L10.1172 7.30078C10.6641 7.35547 10.8828 8.03906 10.5 8.39453L8.44922 10.418L8.91406 13.2344C9.02344 13.7812 8.44922 14.1914 7.98438 13.918L5.44141 12.5781L2.89844 13.918C2.43359 14.1914 1.85938 13.7812 1.96875 13.2344L2.43359 10.418L0.382812 8.39453C0 8.03906 0.21875 7.35547 0.765625 7.30078L3.58203 6.86328L4.83984 4.29297C5.08594 3.82812 5.79688 3.82812 6.01562 4.29297ZM11.9219 6.64453L10.8555 6.34375C10.7734 6.31641 10.6914 6.23438 10.6914 6.125C10.6914 6.01562 10.7734 5.93359 10.8555 5.90625L11.9219 5.60547L12.2227 4.53906C12.25 4.45703 12.332 4.375 12.4414 4.375C12.5508 4.375 12.6328 4.45703 12.6602 4.53906L12.9609 5.60547L14.0273 5.90625C14.1367 5.93359 14.1914 6.01562 14.1914 6.125C14.1914 6.23438 14.1094 6.31641 14.0273 6.34375L12.9609 6.64453L12.6602 7.71094C12.6328 7.82031 12.5508 7.875 12.4414 7.875C12.332 7.875 12.25 7.79297 12.2227 7.71094L11.9219 6.64453Z" fill="white"/>
</svg>
