<svg width="16" height="19" viewBox="0 0 16 19" fill="none" xmlns="http://www.w3.org/2000/svg">
<path d="M15.8555 7.38281C14.3086 7.38281 12.7969 6.89062 11.5312 6.01172V12.2695C11.5312 13.4648 11.1797 14.5898 10.5117 15.5391C9.84375 16.4883 8.89453 17.2266 7.80469 17.6484C6.71484 18.0352 5.51953 18.1055 4.39453 17.8242C3.26953 17.543 2.25 16.9102 1.51172 16.0312C0.738281 15.1523 0.246094 14.0625 0.140625 12.9023C0 11.7422 0.210938 10.582 0.773438 9.5625C1.33594 8.54297 2.17969 7.69922 3.23438 7.17188C4.25391 6.64453 5.44922 6.46875 6.57422 6.60938V9.77344C6.04688 9.63281 5.48438 9.63281 4.95703 9.80859C4.46484 9.98438 4.00781 10.3008 3.65625 10.7578C3.33984 11.2148 3.16406 11.7422 3.19922 12.3047C3.19922 12.8672 3.375 13.3945 3.69141 13.8516C4.00781 14.2734 4.46484 14.625 4.99219 14.7656C5.51953 14.9414 6.11719 14.9414 6.60938 14.7656C7.13672 14.5898 7.59375 14.2734 7.94531 13.8164C8.26172 13.3945 8.4375 12.832 8.4375 12.2695V0H11.5312C11.5312 0.246094 11.5312 0.527344 11.6016 0.773438C11.707 1.37109 11.918 1.89844 12.2344 2.39062C12.5859 2.88281 13.0078 3.30469 13.5 3.62109C14.2031 4.07812 15.0117 4.32422 15.8555 4.32422V7.38281Z" fill="black"/>
</svg>
