<svg width="66" height="69" viewBox="0 0 66 69" fill="none" xmlns="http://www.w3.org/2000/svg">
<rect x="0.631633" y="0.860576" width="56.0242" height="58.443" rx="11.25" transform="matrix(0.987433 0.158041 -0.145255 0.989394 8.83998 -0.0906966)" fill="url(#paint0_linear_5511_4564)"/>
<rect x="0.631633" y="0.860576" width="56.0242" height="58.443" rx="11.25" transform="matrix(0.987433 0.158041 -0.145255 0.989394 8.83998 -0.0906966)" stroke="url(#paint1_linear_5511_4564)" stroke-width="1.5"/>
<path d="M44.3992 24.2447C44.7641 24.0183 45.2011 23.9458 45.5972 24.1517C45.9866 24.4038 46.2493 24.8731 46.1812 25.3369L44.9079 34.0095C44.016 40.085 38.2954 44.201 32.2319 43.2305C28.6679 42.6601 25.9467 39.8987 25.3124 36.4744C23.4351 37.6454 22.1104 39.5695 21.7631 41.9347C21.6746 42.5376 21.0906 42.9663 20.4889 42.87C19.8871 42.7737 19.4529 42.182 19.5414 41.5791C20.0521 38.1008 22.2603 35.3214 25.2104 33.9423C26.987 33.1349 29.0659 32.8505 31.0099 33.1617L34.7127 33.7543C35.3145 33.8506 35.8985 33.422 35.987 32.8191C36.0755 32.2161 35.6413 31.6245 35.0396 31.5282L31.3367 30.9355C29.4853 30.6392 27.7114 30.7825 26.0287 31.2727C27.5699 28.1966 30.972 26.3203 34.5823 26.8981C37.6372 27.3871 40.1013 26.7372 41.7785 25.9613C42.7465 25.4992 43.5892 24.922 44.3992 24.2447Z" fill="url(#paint2_linear_5511_4564)"/>
<defs>
<linearGradient id="paint0_linear_5511_4564" x1="28.7621" y1="1.00487e-06" x2="-5.52975" y2="51.9218" gradientUnits="userSpaceOnUse">
<stop stop-color="#C2ED3F"/>
<stop offset="1" stop-color="#D4E2A9"/>
</linearGradient>
<linearGradient id="paint1_linear_5511_4564" x1="28.7621" y1="0" x2="59.5059" y2="61.9568" gradientUnits="userSpaceOnUse">
<stop stop-color="#C2ED3F"/>
<stop offset="1" stop-color="#6F8724"/>
</linearGradient>
<linearGradient id="paint2_linear_5511_4564" x1="34.4954" y1="22.3273" x2="75.0208" y2="75.5251" gradientUnits="userSpaceOnUse">
<stop/>
<stop offset="1" stop-color="white" stop-opacity="0"/>
</linearGradient>
</defs>
</svg>
