<svg width="65" height="68" viewBox="0 0 65 68" fill="none" xmlns="http://www.w3.org/2000/svg">
<rect x="0.835438" y="0.643961" width="56.0074" height="58.4592" rx="11.25" transform="matrix(0.991008 -0.133803 0.122909 0.992418 -0.0716364 7.81198)" fill="url(#paint0_linear_5511_4566)"/>
<rect x="0.835438" y="0.643961" width="56.0074" height="58.4592" rx="11.25" transform="matrix(0.991008 -0.133803 0.122909 0.992418 -0.0716364 7.81198)" stroke="url(#paint1_linear_5511_4566)" stroke-width="1.5"/>
<path d="M33.8616 22.7782L39.8077 21.9754C40.6438 21.8625 41.3748 22.4259 41.4786 23.2633C41.5823 24.1006 41.0126 24.8397 40.1764 24.9526L34.8807 25.6676C34.7982 26.9085 34.1295 27.992 33.0722 28.6078L34.7718 42.331L42.2044 41.3275C43.0406 41.2146 43.7716 41.7781 43.8753 42.6154C43.979 43.4528 43.4093 44.1919 42.5731 44.3048L24.735 46.7132C23.8988 46.8261 23.1678 46.2627 23.0641 45.4253C22.9604 44.5879 23.5301 43.8489 24.3663 43.736L31.7988 42.7324L30.0992 29.0092C28.9732 28.6882 28.016 27.8242 27.634 26.6461L22.3383 27.3611C21.5021 27.474 20.7711 26.9105 20.6674 26.0732C20.5637 25.2358 21.1334 24.4967 21.9695 24.3838L27.9156 23.581C28.5029 22.6031 29.4964 21.854 30.7042 21.691C31.912 21.5279 33.0554 21.9884 33.8616 22.7782ZM38.1223 35.8246L44.8116 34.9214L40.7525 29.6046L38.1223 35.8246ZM42.02 39.8389C39.0935 40.234 36.482 38.9785 35.7117 36.9541C35.509 36.4612 35.6315 35.9244 35.8526 35.4216L39.3265 27.2431C39.507 26.793 39.8962 26.504 40.3608 26.4413C40.8253 26.3785 41.2722 26.5547 41.5563 26.942L46.9085 33.9288C47.2448 34.3564 47.494 34.843 47.418 35.3736C47.1663 37.5359 44.9466 39.4438 42.02 39.8389ZM22.8679 32.0193L20.1912 38.2456L26.927 37.3361L22.8679 32.0193ZM17.8272 39.3688C17.6244 38.8759 17.7469 38.3391 17.968 37.8363L21.4419 29.6578C21.6224 29.2077 22.0116 28.9187 22.4762 28.856C22.9407 28.7933 23.3876 28.9694 23.6717 29.3567L29.0239 36.3436C29.3602 36.7711 29.6094 37.2578 29.5334 37.7883C29.2817 39.9507 27.062 41.8585 24.1354 42.2536C21.2089 42.6488 18.5974 41.3932 17.8272 39.3688Z" fill="url(#paint2_linear_5511_4566)"/>
<defs>
<linearGradient id="paint0_linear_5511_4566" x1="28.7537" y1="1.00514e-06" x2="-5.55501" y2="51.918" gradientUnits="userSpaceOnUse">
<stop stop-color="#C2ED3F"/>
<stop offset="1" stop-color="#D4E2A9"/>
</linearGradient>
<linearGradient id="paint1_linear_5511_4566" x1="28.7537" y1="0" x2="59.5162" y2="61.9597" gradientUnits="userSpaceOnUse">
<stop stop-color="#C2ED3F"/>
<stop offset="1" stop-color="#6F8724"/>
</linearGradient>
<linearGradient id="paint2_linear_5511_4566" x1="30.7042" y1="21.691" x2="-5.20828" y2="75.8948" gradientUnits="userSpaceOnUse">
<stop/>
<stop offset="1" stop-color="white" stop-opacity="0"/>
</linearGradient>
</defs>
</svg>
